<svg width="52" height="32" viewBox="0 0 65 40" fill="none" xmlns="http://www.w3.org/2000/svg">
<path d="M40.8455 23.692L43.6964 27.1098L32.0566 37.1011L20.4168 27.1098L23.2677 23.692L4.06042 6.60205L30.6334 22.4647L27.6739 26.4088L32.0566 28.9945L36.4393 26.4088L33.4798 22.4647L60.0528 6.60205L40.8455 23.692Z" fill="url(#paint0_linear_1_100)"/>
<path d="M32.0566 4.47445L32.0566 10.9136L33.7364 8.56186L41.6313 13.4892L37.6559 18.0806L45.9427 13.0413L32.0566 4.47445Z" fill="url(#paint1_linear_1_100)"/>
<path d="M32.0566 4.47445L32.0566 10.9136L30.3769 8.56186L22.4819 13.4892L26.4574 18.0806L18.1705 13.0413L32.0566 4.47445Z" fill="url(#paint2_linear_1_100)"/>
<path d="M64.0283 23.1758L51.3181 15.8408L48.7984 18.3605L53.4084 24.06L32.0567 39.5256L64.0283 23.1758Z" fill="url(#paint3_linear_1_100)"/>
<path d="M0.0849609 23.1758L12.7952 15.8408L15.3149 18.3605L10.7048 24.06L32.0566 39.5256L0.0849609 23.1758Z" fill="url(#paint4_linear_1_100)"/>
<path d="M32.0566 26.9833L30.0409 25.8234L31.4106 24.0331L32.0566 23.1758L32.7027 24.0331L34.0723 25.8234L32.0566 26.9833Z" fill="url(#paint5_linear_1_100)"/>
<defs>
<linearGradient id="paint0_linear_1_100" x1="32.0566" y1="1.1148" x2="21.4495" y2="36.4538" gradientUnits="userSpaceOnUse">
<stop stop-color="#01FFC2"/>
<stop offset="0.995" stop-color="#5AB0FF"/>
</linearGradient>
<linearGradient id="paint1_linear_1_100" x1="33.7256" y1="17.0959" x2="45.2663" y2="14.9079" gradientUnits="userSpaceOnUse">
<stop stop-color="#01FFC2"/>
<stop offset="0.995" stop-color="#5AB0FF"/>
</linearGradient>
<linearGradient id="paint2_linear_1_100" x1="30.3876" y1="17.0959" x2="18.847" y2="14.9079" gradientUnits="userSpaceOnUse">
<stop stop-color="#01FFC2"/>
<stop offset="0.995" stop-color="#5AB0FF"/>
</linearGradient>
<linearGradient id="paint3_linear_1_100" x1="35.8994" y1="17.5549" x2="61.7974" y2="24.0491" gradientUnits="userSpaceOnUse">
<stop stop-color="#01FFC2"/>
<stop offset="0.995" stop-color="#5AB0FF"/>
</linearGradient>
<linearGradient id="paint4_linear_1_100" x1="28.2139" y1="17.5549" x2="2.31593" y2="24.0491" gradientUnits="userSpaceOnUse">
<stop stop-color="#01FFC2"/>
<stop offset="0.995" stop-color="#5AB0FF"/>
</linearGradient>
<linearGradient id="paint5_linear_1_100" x1="32.0566" y1="4.36235" x2="14.8848" y2="24.8597" gradientUnits="userSpaceOnUse">
<stop stop-color="#01FFC2"/>
<stop offset="0.995" stop-color="#5AB0FF"/>
</linearGradient>
</defs>
</svg>
